Coordinates
version=1
nRows=6
nColumns=36
inDegrees=yes

Units are S.I. units (second, meters, Newtons, ...)
If the header above contains a line with 'inDegrees', this indicates whether rotational values are in degrees (yes) or radians (no).

endheader
time	pelvis_tilt	pelvis_list	pelvis_rotation	pelvis_tx	pelvis_ty	pelvis_tz	hip_flexion_r	hip_adduction_r	hip_rotation_r	knee_angle_r	knee_angle_r_beta	ankle_angle_r	subtalar_angle_r	mtp_angle_r	hip_flexion_l	hip_adduction_l	hip_rotation_l	knee_angle_l	knee_angle_l_beta	ankle_angle_l	subtalar_angle_l	mtp_angle_l	lumbar_extension	lumbar_bending	lumbar_rotation	arm_flex_r	arm_add_r	arm_rot_r	elbow_flex_r	pro_sup_r	arm_flex_l	arm_add_l	arm_rot_l	elbow_flex_l	pro_sup_l
     29.76666670	     -0.73595133	      0.26074226	     -6.05193973	      0.74654009	      0.91039069	      0.78871826	     -5.45019727	      0.41747874	     -0.00871558	      9.11687740	      0.15911953	     21.30119582	      2.74436848	     -7.49999987	     27.45029740	     -4.78594524	     -9.20596716	     14.74108914	      0.25728054	      8.33907709	     -0.01655237	     -7.49999987	     -4.52801228	      1.99859782	      8.13960104	     13.30336869	    -17.14340027	      5.39048815	     37.73879082	     83.88491836	     -0.84256753	     -7.68201893	      7.78696626	     16.11525756	     83.16753260
     29.78333330	     -1.31929704	      0.46529782	     -6.32716989	      0.74616897	      0.90376339	      0.78609046	     -5.98664215	      0.05302034	      0.47790024	      9.35814898	      0.16333051	     21.99407786	      3.23050377	     -7.49999987	     28.08710775	     -4.57676437	     -8.85765205	     12.66886280	      0.22111337	      8.76887937	      1.39585802	     -7.49999987	     -3.38083370	      1.76553901	      8.32896239	     13.09763539	    -17.05355323	      5.01993372	     37.93416117	     83.98730298	     -1.66990902	     -7.64671609	      7.22828972	     15.64810353	     83.10640798
     29.80000000	     -2.10615388	      0.82836281	     -6.55400061	      0.74663719	      0.89786128	      0.78292130	     -6.24378912	     -0.51879885	      0.42964771	     10.05914497	      0.17556520	     22.67967926	      4.69045310	     -7.49999987	     28.95796199	     -4.19015502	     -8.26632746	     11.75074899	      0.20508926	      8.97644187	      1.94437955	     -7.49999987	     -1.90920471	      1.36044093	      8.65824862	     12.30099145	    -16.94247352	      4.45493461	     38.38727041	     84.14954006	     -2.30961172	     -7.59529691	      6.82154953	     14.97542505	     83.18238574
     29.81666670	     -2.67739475	      1.36715817	     -6.78482800	      0.74650551	      0.89355400	      0.78030308	     -6.69776108	     -1.29249556	      0.66911166	     10.96879171	      0.19144153	     22.91486697	      5.35085043	     -7.49999987	     29.57726073	     -3.65059015	     -7.95026048	     11.83322543	      0.20652874	      8.98466589	      2.18067319	     -7.49999987	     -0.67311048	      0.70273714	      8.86732398	     11.70339629	    -16.67840860	      4.14869301	     38.37926038	     84.15698300	     -2.88646493	     -7.73491445	      6.68446362	     14.68278922	     83.17743388
     29.83333330	     -3.39019385	      1.90626640	     -6.93237719	      0.74599192	      0.89028481	      0.77818499	     -6.87925920	     -2.09959487	      0.68675095	     12.20019407	      0.21293356	     23.13999252	      6.49657555	     -7.49999987	     30.40070399	     -3.12061202	     -7.65026184	     12.84547930	      0.22419591	      8.69730358	      2.00846901	     -7.49999987	      0.83419551	      0.04980687	      9.19995900	     10.80684282	    -16.26582813	      3.45302894	     37.80611810	     83.84776184	     -2.97616103	     -7.80221008	      6.61829580	     13.89406688	     82.85171277
     29.85000000	     -3.75943897	      2.41442024	     -7.07865717	      0.74564188	      0.88790259	      0.77660829	     -7.30210310	     -2.87391360	      1.15750234	     13.52683769	      0.23608786	     22.76874782	      6.59797533	     -7.49999987	     30.81646904	     -2.61602007	     -7.49375455	     14.41589980	      0.25160492	      8.04272186	      1.82391030	     -7.49999987	      1.65593417	     -0.62311379	      9.27411477	      9.93205176	    -15.92979115	      3.52600866	     37.75660568	     83.49431607	     -3.27240698	     -8.11975525	      6.64014984	     14.57035444	     82.49516203
